<svg id="ico_member" xmlns="http://www.w3.org/2000/svg" width="40" height="50" viewBox="0 0 40 50">
  <defs>
    <style>
      .cls-1 {
        fill: #fff;
        opacity: 0;
      }

      .cls-2, .cls-3 {
        fill: none;
      }

      .cls-3 {
        stroke: #fff;
        stroke-linecap: round;
        stroke-linejoin: round;
      }

      .cls-4, .cls-5 {
        stroke: none;
      }

      .cls-5 {
        fill: #fff;
      }
    </style>
  </defs>
  <rect id="사각형_1513" data-name="사각형 1513" class="cls-1" width="40" height="50"/>
  <g id="패스_61" data-name="패스 61" class="cls-2" transform="translate(16.111 18.25)">
    <path class="cls-4" d="M3.889,0A3.889,3.889,0,1,1,0,3.889,3.889,3.889,0,0,1,3.889,0Z"/>
    <path class="cls-5" d="M 3.888888359069824 0.9999985694885254 C 2.295948505401611 0.9999985694885254 0.9999985694885254 2.295948505401611 0.9999985694885254 3.888888359069824 C 0.9999985694885254 5.481828689575195 2.295948505401611 6.777778625488281 3.888888359069824 6.777778625488281 C 5.481828689575195 6.777778625488281 6.777778625488281 5.481828689575195 6.777778625488281 3.888888359069824 C 6.777778625488281 2.295948505401611 5.481828689575195 0.9999985694885254 3.888888359069824 0.9999985694885254 M 3.888888359069824 -1.430511474609375e-06 C 6.03665828704834 -1.430511474609375e-06 7.777778148651123 1.741118431091309 7.777778148651123 3.888888359069824 C 7.777778148651123 6.03665828704834 6.03665828704834 7.777778148651123 3.888888359069824 7.777778148651123 C 1.741118431091309 7.777778148651123 -1.430511474609375e-06 6.03665828704834 -1.430511474609375e-06 3.888888359069824 C -1.430511474609375e-06 1.741118431091309 1.741118431091309 -1.430511474609375e-06 3.888888359069824 -1.430511474609375e-06 Z"/>
  </g>
  <path id="패스_57" data-name="패스 57" class="cls-3" d="M763,358.379a6.96,6.96,0,0,0-1.195-1.578,8.464,8.464,0,0,0-11.353-.245A7.042,7.042,0,0,0,749,358.379" transform="translate(-736 -326.907)"/>
</svg>
