<svg xmlns="http://www.w3.org/2000/svg" width="120" height="60" viewBox="0 0 120 60"><defs><clipPath id="rivn2iqvma"><path data-name="사각형 1609" style="fill:none" d="M0 0h105v40H0z"/></clipPath><clipPath id="cejymuqmfb"><path data-name="사각형 1615" transform="translate(-7 -9)" style="fill:none" d="M0 0h120v60H0z"/></clipPath></defs><g data-name="그룹 82"><g data-name="그룹 77"><g data-name="그룹 76" style="clip-path:url(#rivn2iqvma)" transform="translate(7 9)"><path data-name="패스 1754" d="M102.142 30.353a3.88 3.88 0 0 0 2.858-3.71V26.6a3.855 3.855 0 0 0-.943-2.528 3.767 3.767 0 0 0 .546-.821 3.4 3.4 0 0 0 .35-1.312l.008-.116a6.4 6.4 0 0 0 .019-.39c.028-2.25.025-5.378-.005-7.44a3.779 3.779 0 0 0-3.7-3.74c-1.873-.043-6.291-.059-9.8-.059-3.456 0-7.83.014-9.745.057a3.954 3.954 0 0 0-3.876 3.969l-7.484.211v-.071a3.828 3.828 0 0 0-3.8-3.8 877.5 877.5 0 0 0-6.826-.018c-2.434 0-5.459 0-6.648.017a3.96 3.96 0 0 0-3.183 1.687 4.019 4.019 0 0 0-3.126-1.654c-1.781-.042-5.825-.057-9.015-.057-3.1 0-7.01.014-8.667.055a3.806 3.806 0 0 0-3.71 3.709c-.063 2.362-.081 6-.053 9.086l-8.279-11.2a4.04 4.04 0 0 0-3.223-1.634h-.012a4.045 4.045 0 0 0-3.222 1.616L1.93 23.752a4.071 4.071 0 0 0-.749 3.1 4.008 4.008 0 0 0 1.728 2.681 3.826 3.826 0 0 0 .816.408A3.94 3.94 0 0 0 0 33.844v.126a3.94 3.94 0 0 0 1.716 3.23l-.029.054.42.163a3.878 3.878 0 0 0 .96.373c2.683 1.043 5.229 2.064 7.972 3.118a3.375 3.375 0 0 0 1.363.424c.3.023.917.023.917.023-.024 0 14.314-.009 15.083 0a2.772 2.772 0 0 0 1.081-.189 2.668 2.668 0 0 0 .822-.518 3.738 3.738 0 0 0 2.326.684l15.858.024a3.689 3.689 0 0 0 2.044-1.132 3 3 0 0 0 1.48.424H63.43a1.909 1.909 0 0 0 1.127-.424l1.057.566h9.868l.564-.142a2.764 2.764 0 0 0 .7.5 3.449 3.449 0 0 0 1.2.4c0-.031 13.932-.079 13.932-.048a6.268 6.268 0 0 0 .776-.094 2.614 2.614 0 0 0 .775-.283l8.625-3.24A3.885 3.885 0 0 0 105 34.125v-.05a3.882 3.882 0 0 0-2.858-3.723" transform="translate(0 -1.543)" style="fill:#5e25c7"/></g></g><g data-name="그룹 79"><g data-name="그룹 78" style="clip-path:url(#rivn2iqvma)" transform="translate(7 9)"><path data-name="패스 1755" d="M52.656 36.532c-3.419.045-16.047.046-19.438 0a2.182 2.182 0 0 1-2.155-2.17v-.131a2.183 2.183 0 0 1 2.155-2.172c.994-.014 5.244-.021 6.641-.023a.58.58 0 0 0 .579-.588c-.012-.659-.014-1.367-.014-2.027a.365.365 0 0 0-.361-.361c-1.179-.014-5.241-.027-6.129-.048a2.109 2.109 0 0 1-2.058-2.059c-.088-3.279-.088-8.978 0-12.254a2.112 2.112 0 0 1 2.06-2.059c3-.074 14.438-.073 17.6 0a2.335 2.335 0 0 1 2.277 2.333v.221a2.331 2.331 0 0 1-2.322 2.315c-2.98.01-13.44.005-14.145-.016a.423.423 0 0 0-.02.839c2.507-.02 11.586-.013 13.842.021a2.313 2.313 0 0 1 2.272 2.306v.058a2.354 2.354 0 0 1-2.315 2.38c-2.257.034-11.308.041-13.8.021a.429.429 0 0 0 .029.85c1.015-.042 11.442-.053 14.4-.034a2.326 2.326 0 0 1 2.308 2.326v.417a2.341 2.341 0 0 1-2.286 2.337c-.854.018-4.853.031-5.959.042a.364.364 0 0 0-.36.361c0 .671 0 1.369-.014 2.023a.581.581 0 0 0 .58.592c1.4 0 5.641.009 6.637.024a2.2 2.2 0 0 1 2.169 2.177v.049a2.211 2.211 0 0 1-2.171 2.244" transform="translate(-4.79 -1.906)" style="fill:#fff"/><path data-name="패스 1756" d="M115.637 35.375c-.845-.006-15.334.005-16.21.018-.16 0-.515.012-.529-.2a1.866 1.866 0 0 0-.2-1.046 1.956 1.956 0 0 0-.858-.7 3.3 3.3 0 0 0-1.367-.281 2.548 2.548 0 0 0-2.153.941 2.358 2.358 0 0 0-.266 1.416c0 .589-.009 1.193 0 1.782a3.5 3.5 0 0 0 .144 1.146 2.042 2.042 0 0 0 .614.889 2.576 2.576 0 0 0 1.541.455c3.709.048 15.76.031 19.324-.017a2.17 2.17 0 0 0 2.136-2.177v-.051a2.188 2.188 0 0 0-2.175-2.179" transform="translate(-14.503 -5.023)" style="fill:#fff"/><path data-name="패스 1757" d="M115.66 26.628c-1.32-.012-6.131-.025-7.2-.027a.4.4 0 0 1-.4-.275c0-.007-.006-.008-.008-.014-.227-1.062-1.62-1.377-2.268-1.377h-.634c-.547 0-2.038.308-2.267 1.366 0 .009-.011.013-.014.025-.079.291-.423.275-.423.275h.005c-.974.008-6.053.012-6.242.014a2.181 2.181 0 0 0-2.154 2.188v.046a2.185 2.185 0 0 0 2.168 2.188c3.755.024 15.645.024 19.439 0a2.175 2.175 0 0 0 2.158-2.171v-.047a2.177 2.177 0 0 0-2.152-2.194" transform="translate(-14.504 -3.776)" style="fill:#fff"/><path data-name="패스 1758" d="M112.761 22.1a.373.373 0 0 1 .362.244 2.071 2.071 0 0 0 2.027 1.622h.568a2.094 2.094 0 0 0 1.566-.708 2.067 2.067 0 0 0 .3-.454 1.705 1.705 0 0 0 .182-.667c.008-.142.023-.284.025-.427.027-2.2.025-5.348 0-7.394a2.094 2.094 0 0 0-2.046-2.068c-3.342-.077-16.012-.078-19.469 0a2.283 2.283 0 0 0-2.226 2.3v.052a2.264 2.264 0 0 0 2.235 2.268c1.01.01 16.022-.025 16.435-.023a.437.437 0 0 1 0 .873c-1.215 0-15.528-.008-16.56 0a2.133 2.133 0 0 0-2.11 2.144v.053a2.149 2.149 0 0 0 2.123 2.154h16.448a1.14 1.14 0 0 1 .142 0" transform="translate(-14.503 -1.846)" style="fill:#fff"/><path data-name="패스 1759" d="M4.2 35.442c3.51-.051 15.815-.04 19.347.01a2.243 2.243 0 0 1 2.212 2.219v.051a2.254 2.254 0 0 1-2.214 2.287c-3.53.046-15.83.046-19.341 0A2.236 2.236 0 0 1 2 37.785v-.117a2.235 2.235 0 0 1 2.2-2.226" transform="translate(-.308 -5.362)" style="fill:#fff"/><path data-name="패스 1760" d="M22.912 28.888a2.329 2.329 0 0 1-1.878-.948l-6.376-8.628a.409.409 0 0 0-.658 0l-6.386 8.533a2.422 2.422 0 0 1-3.249.647 2.35 2.35 0 0 1-.565-3.356l8.675-11.6a2.336 2.336 0 0 1 1.869-.937h.008a2.333 2.333 0 0 1 1.869.948l8.5 11.5a2.429 2.429 0 0 1-.362 3.336 2.325 2.325 0 0 1-1.441.5" transform="translate(-.513 -1.909)" style="fill:#fff"/><path data-name="패스 1761" d="M62.679 21.269c1.065-.008 8.612 0 9.508.021a1.056 1.056 0 0 0 1.083-1.034 41.27 41.27 0 0 0 0-1.959 1.061 1.061 0 0 0-1.07-1.043c-1.015.017-8.582.021-9.785.013a2.316 2.316 0 0 1-2.285-2.308v-.036a2.292 2.292 0 0 1 2.26-2.31c2.166-.022 11.3-.022 13.438 0a2.154 2.154 0 0 1 2.127 2.132c.036 2.5.036 6.469 0 8.963a2.158 2.158 0 0 1-2.13 2.133c-1 .01-8.246 0-9.293-.021a1.28 1.28 0 0 0-1.308 1.267c-.01.826-.01 1.835 0 2.664a1.294 1.294 0 0 0 1.324 1.277c1.13-.024 7.972-.031 9.14-.02a2.332 2.332 0 0 1 2.292 2.328v.054a2.3 2.3 0 0 1-2.25 2.32c-2.2.042-10.84.043-13.1 0a2.491 2.491 0 0 1-2.447-2.45 296.57 296.57 0 0 1 0-9.526 2.516 2.516 0 0 1 2.5-2.471" transform="translate(-9.272 -1.908)" style="fill:#fff"/></g></g><path data-name="패스 1762" d="M88.954 4.662 87.5 1.755l-1.254 2.992z" transform="translate(-6.3 8.734)" style="fill:#66006c"/><g data-name="그룹 81"><g data-name="그룹 80" style="clip-path:url(#cejymuqmfb)" transform="translate(7 9)"><path data-name="패스 1763" d="m89.011 5.785-1.729-4.16a.088.088 0 0 0-.159 0L85.381 5.78l-1.8 4.3a.252.252 0 0 0-.019.092l-.041 22.678a1.8 1.8 0 0 0 1.862 1.733l3.53.005a1.8 1.8 0 0 0 1.868-1.728l.041-22.678a.235.235 0 0 0-.019-.092z" transform="translate(-12.879 -.238)" style="fill:#fff"/><path data-name="패스 1764" d="m88.8 34.965-3.531-.006a2.347 2.347 0 0 1-2.47-2.2l.041-22.678a.581.581 0 0 1 .049-.233l1.105-2.635 1.9-4.535c.161-.383.318-.763.481-1.144a.744.744 0 0 1 1.377-.14l3.518 8.467a.575.575 0 0 1 .047.232l-.041 22.678a2.353 2.353 0 0 1-2.476 2.194M87.09 2.877l-3.044 7.258-.032 22.631a1.279 1.279 0 0 0 1.254 1.269l3.531.005a1.264 1.264 0 0 0 1.257-1.265L90.1 10.1zm.5-1.2" transform="translate(-12.768 -.151)" style="fill:#5e25c7"/><path data-name="선 48" transform="translate(75.623 11.114)" style="fill:#63c6f1" d="M.032 0 0 17.048"/><path data-name="사각형 1611" transform="rotate(-89.94 51.604 -23.466)" style="fill:#5e25c7" d="M0 0h17.049v1.218H0z"/><path data-name="선 49" transform="translate(72.928 11.109)" style="fill:#63c6f1" d="M.032 0 0 17.048"/><path data-name="사각형 1612" transform="rotate(-89.94 50.254 -22.12)" style="fill:#5e25c7" d="M0 0h17.049v1.218H0z"/><path data-name="선 50" transform="translate(70.645 28.155)" style="fill:#63c6f1" d="m0 0 7.261.011"/><path data-name="패스 1765" d="m90.785 33.571-7.26-.011v-.925l7.26.011z" transform="translate(-12.881 -4.942)" style="fill:#5e25c7"/><path data-name="선 51" transform="translate(70.692 30.547)" style="fill:#63c6f1" d="m0 0 7.209.011"/><path data-name="사각형 1613" transform="rotate(-89.919 50.872 -19.89)" style="fill:#5e25c7" d="M0 0h.925v7.21H0z"/><path data-name="사각형 1614" transform="translate(72.459 5.179)" style="fill:#5e25c7" d="M0 0h3.712v.926H0z"/><path data-name="패스 1766" d="m90.423 11.257-1.552.794-.047.024a.355.355 0 0 1-.377-.018l-.617-.557a1.081 1.081 0 0 0-.5-.288.889.889 0 0 0-.557.052 2.246 2.246 0 0 0-.558.427l-.4.369a.285.285 0 0 1-.325.025l-1.635-.871-.7.759 2.731 1.454 1.247-1.116 1.229 1.117 2.739-1.4z" transform="translate(-12.824 -1.694)" style="fill:#5e25c7"/><path data-name="패스 1767" d="M86.884.849a.762.762 0 0 1 .714.4l3.517 8.467a.562.562 0 0 1 .048.232l-.042 22.678a2.353 2.353 0 0 1-2.478 2.189l-3.531-.006a2.346 2.346 0 0 1-2.469-2.2l.041-22.678a.581.581 0 0 1 .049-.233l1.1-2.635 1.9-4.535c.16-.383.317-.763.48-1.144a.769.769 0 0 1 .653-.539h.011m0-.849h-.021a1.587 1.587 0 0 0-1.419 1.052c-.121.281-.238.561-.355.843l-.122.309-1.784 4.257-.118.279-1.1 2.635a1.423 1.423 0 0 0-.115.563L81.8 32.611a2.9 2.9 0 0 0 1 2.189 3.467 3.467 0 0 0 2.307.859l3.531.006a3.2 3.2 0 0 0 3.325-3.035l.042-22.679a1.439 1.439 0 0 0-.123-.583L88.379.921A1.587 1.587 0 0 0 86.884 0" transform="translate(-12.614)" style="fill:#5e25c7"/></g></g></g></svg>