<svg xmlns="http://www.w3.org/2000/svg" width="22" height="21.02" viewBox="0 0 22 21.02">
    <g data-name="ico_star" style="fill:none;stroke-linecap:round;stroke-linejoin:round">
        <path d="m13 3 3.09 6.26L23 10.27l-5 4.87 1.18 6.88L13 18.77l-6.18 3.25L8 15.14l-5-4.87 6.91-1.01z" style="stroke:none" transform="translate(-2 -2)"/>
        <path d="M13 3 9.91 9.26 3 10.27l5 4.87-1.18 6.88L13 18.77l6.18 3.25L18 15.14l5-4.87-6.91-1.01L13 3m0-1a1 1 0 0 1 .897.557l2.857 5.79 6.39.934a1 1 0 0 1 .554 1.705l-4.623 4.503 1.09 6.362a1 1 0 0 1-1.45 1.054L13 19.9l-5.715 3.005a1 1 0 0 1-1.45-1.054l1.09-6.362-4.623-4.503a1 1 0 0 1 .553-1.705l6.39-.935 2.858-5.789A1 1 0 0 1 13 2z" style="fill:#fff;stroke:none" transform="translate(-2 -2)"/>
    </g>
</svg>
