<svg xmlns="http://www.w3.org/2000/svg" width="20" height="17.5" viewBox="0 0 20 17.5">
    <g data-name="Icon awesome-heart" style="fill:none">
        <path d="M18.058 3.38a5.561 5.561 0 0 0-7.289.5l-.77.75-.77-.75a5.56 5.56 0 0 0-7.289-.5 5.116 5.116 0 0 0-.387 7.686l7.558 7.386a1.273 1.273 0 0 0 1.769 0l7.558-7.386a5.113 5.113 0 0 0-.383-7.686z" style="stroke:none" transform="translate(.001 -2.248)"/>
        <path d="M5.217 3.248c-.994 0-1.91.315-2.648.91-.953.77-1.509 1.85-1.565 3.042a4.143 4.143 0 0 0 1.25 3.15l7.557 7.387a.266.266 0 0 0 .186.073c.042 0 .121-.01.186-.073l7.559-7.386A4.142 4.142 0 0 0 18.995 7.2c-.057-1.192-.612-2.272-1.565-3.041-.739-.596-1.654-.911-2.647-.911a4.785 4.785 0 0 0-3.316 1.35L10 6.03 8.531 4.598a4.775 4.775 0 0 0-3.314-1.35m0-1c1.456 0 2.924.57 4.013 1.635l.77.75.769-.75c1.965-1.919 5.148-2.23 7.289-.503 2.453 1.982 2.582 5.538.383 7.686l-7.559 7.386a1.273 1.273 0 0 1-1.77 0l-7.558-7.386C-.64 8.918-.512 5.362 1.941 3.38c.952-.768 2.11-1.132 3.276-1.132z" style="fill:#fff;stroke:none" transform="translate(.001 -2.248)"/>
    </g>
</svg>
