<svg xmlns="http://www.w3.org/2000/svg" width="10.01" height="10" viewBox="0 0 10.01 10">
    <path data-name="패스 411" d="M19.992 9.981v-3.8A3.352 3.352 0 0 0 16.492 3a3.352 3.352 0 0 0-3.5 3.181v3.8s6.953.043 7 0z" transform="translate(-11.487 -2.5)" style="fill:none;stroke:#424242;stroke-linecap:round;stroke-linejoin:round"/>
    <path data-name="패스 413" d="M39.932 15.964a2 2 0 0 0-2-2" transform="translate(-32.927 -11.964)" style="fill:none;stroke:#424242;stroke-linecap:round;stroke-linejoin:round"/>
    <path data-name="패스 412" d="M11.595 56.83H3.4a.421.421 0 0 1-.38-.569l.176-.5a1.353 1.353 0 0 1 1.267-.927h6.066a1.353 1.353 0 0 1 1.267.927l.176.5a.421.421 0 0 1-.377.569z" transform="translate(-2.495 -47.33)" style="fill:none;stroke:#424242;stroke-linecap:round;stroke-linejoin:round"/>
</svg>
