<svg xmlns="http://www.w3.org/2000/svg" width="17" height="17" viewBox="0 0 17 17">
    <g data-name="Icon feather-settings">
        <path data-name="패스 416" d="M17.864 15.682a2.182 2.182 0 1 1-2.182-2.182 2.182 2.182 0 0 1 2.182 2.182z" transform="translate(-7.182 -7.182)" style="fill:none;stroke:#5e25c7;stroke-linecap:round;stroke-linejoin:round"/>
        <path data-name="패스 417" d="M14.882 11.682a1.2 1.2 0 0 0 .24 1.324l.044.044a1.455 1.455 0 1 1-2.058 2.058l-.044-.044a1.21 1.21 0 0 0-2.051.858v.124a1.455 1.455 0 0 1-2.909 0v-.066a1.2 1.2 0 0 0-.785-1.1 1.2 1.2 0 0 0-1.324.24l-.044.044a1.455 1.455 0 1 1-2.058-2.058l.044-.044a1.21 1.21 0 0 0-.858-2.051h-.124a1.455 1.455 0 1 1 0-2.909h.065a1.2 1.2 0 0 0 1.1-.785 1.2 1.2 0 0 0-.24-1.324l-.044-.044a1.455 1.455 0 1 1 2.057-2.056l.044.044a1.2 1.2 0 0 0 1.324.24h.058a1.2 1.2 0 0 0 .727-1.1v-.122a1.455 1.455 0 1 1 2.909 0v.065a1.21 1.21 0 0 0 2.051.858l.044-.044a1.455 1.455 0 1 1 2.058 2.058l-.044.044a1.2 1.2 0 0 0-.24 1.324v.058a1.2 1.2 0 0 0 1.1.727h.124a1.455 1.455 0 0 1 0 2.909h-.068a1.2 1.2 0 0 0-1.098.728z" transform="translate(-1 -1)" style="fill:none;stroke:#5e25c7;stroke-linecap:round;stroke-linejoin:round"/>
    </g>
</svg>
