<svg xmlns="http://www.w3.org/2000/svg" width="13" height="10" viewBox="0 0 13 10">
    <g data-name="그룹 12">
        <path data-name="패스 427" d="M13.5 12.5a1.048 1.048 0 0 1-1.091 1H2.591a1.048 1.048 0 0 1-1.091-1V7a1.048 1.048 0 0 1 1.091-1h2.182l1.091-1.5h3.272L10.227 6h2.182A1.048 1.048 0 0 1 13.5 7z" transform="translate(-1 -4)" style="fill:none;stroke:#424242;stroke-linecap:round;stroke-linejoin:round"/>
        <path data-name="패스 428" d="M16 15.5a2 2 0 1 1-2-2 2 2 0 0 1 2 2z" transform="translate(-7.5 -10)" style="fill:none;stroke:#424242;stroke-linecap:round;stroke-linejoin:round"/>
    </g>
</svg>
