<svg xmlns="http://www.w3.org/2000/svg" width="10" height="10" viewBox="0 0 10 10">
    <g data-name="패스 410" style="stroke-linecap:round;stroke-linejoin:round;fill:none">
        <path d="M25.777 7.112H23.55a.567.567 0 0 1-.519-.838c.13-.226.256-.448.334-.6.265-.5.7-1.64-.04-2.327a1.069 1.069 0 0 0-1.672.107L19 7.1V13h4.672a2.106 2.106 0 0 0 .741-.138 1.945 1.945 0 0 0 1.055-.974c.3-.61 1.039-2.106 1.387-3.056.645-1.764-1.078-1.72-1.078-1.72z" style="stroke:none" transform="translate(-17 -3)"/>
        <path d="m22.522 4-.013.002a.14.14 0 0 0-.047.044L20 7.43v4.57h3.672a1.1 1.1 0 0 0 .392-.075.952.952 0 0 0 .507-.478l.021-.043c.3-.61 1.002-2.037 1.324-2.916.063-.172.08-.28.083-.338a.777.777 0 0 0-.205-.037H23.55a1.6 1.6 0 0 1-1.384-.791 1.531 1.531 0 0 1-.001-1.546c.144-.25.253-.446.317-.566.175-.331.375-.929.163-1.126A.336.336 0 0 0 22.522 4m0-1c.239 0 .517.085.803.35.74.687.305 1.828.04 2.327-.078.149-.204.371-.334.597-.216.377.069.838.519.838h2.227s1.725-.044 1.078 1.72c-.348.95-1.087 2.446-1.387 3.056a1.945 1.945 0 0 1-1.055.973c-.209.078-.455.139-.74.139H19V7.104l2.653-3.646A1.053 1.053 0 0 1 22.521 3z" style="fill:#5e25c7;stroke:none" transform="translate(-17 -3)"/>
    </g>
    <g data-name="사각형 1533" style="fill:#5e25c7;stroke:#5e25c7;stroke-linecap:round;stroke-linejoin:round">
        <path style="stroke:none" d="M0 0h3v6H0z" transform="translate(0 4)"/>
        <path style="fill:none" d="M.5.5h2v5h-2z" transform="translate(0 4)"/>
    </g>
</svg>
