<svg xmlns="http://www.w3.org/2000/svg" width="16" height="13.25" viewBox="0 0 16 13.25">
    <g data-name="Icon awesome-heart" style="fill:none">
        <path d="M14.446 3.154a4.449 4.449 0 0 0-5.831.4L8 4.156l-.616-.6a4.448 4.448 0 0 0-5.831-.4 4.093 4.093 0 0 0-.31 6.144l6.047 5.912a1.018 1.018 0 0 0 1.416 0L14.752 9.3a4.091 4.091 0 0 0-.306-6.149z" style="stroke:none" transform="translate(.001 -2.248)"/>
        <path d="M4.173 3.248c-.748 0-1.437.236-1.992.684a3.103 3.103 0 0 0-1.178 2.287c-.042.88.3 1.743.94 2.368l6.046 5.91h.018l6.047-5.91c.64-.625.983-1.488.942-2.368a3.1 3.1 0 0 0-1.178-2.287 3.133 3.133 0 0 0-1.992-.684c-.93 0-1.846.373-2.513 1.024L8 5.553 6.684 4.271a3.619 3.619 0 0 0-2.51-1.023m0-1c1.164 0 2.338.455 3.21 1.308l.615.6.616-.6c1.572-1.535 4.119-1.784 5.831-.402a4.09 4.09 0 0 1 .306 6.148l-6.046 5.91a1.018 1.018 0 0 1-1.416 0l-6.047-5.91a4.093 4.093 0 0 1 .31-6.148 4.147 4.147 0 0 1 2.62-.906z" style="fill:#fff;stroke:none" transform="translate(.001 -2.248)"/>
    </g>
</svg>
