<svg xmlns="http://www.w3.org/2000/svg" width="15.358" height="13.901" viewBox="0 0 15.358 13.901">
    <g data-name="패스 61" style="fill:none">
        <path d="M3.889 0A3.889 3.889 0 1 1 0 3.889 3.889 3.889 0 0 1 3.889 0z" style="stroke:none" transform="translate(3.79)"/>
        <path d="M3.889 1A2.892 2.892 0 0 0 1 3.889a2.892 2.892 0 0 0 2.889 2.889 2.892 2.892 0 0 0 2.889-2.89A2.892 2.892 0 0 0 3.888 1m0-1a3.889 3.889 0 1 1 0 7.778 3.889 3.889 0 0 1 0-7.778z" style="fill:#fff;stroke:none" transform="translate(3.79)"/>
    </g>
    <path data-name="패스 57" d="M763 358.379a6.96 6.96 0 0 0-1.195-1.578 8.464 8.464 0 0 0-11.353-.245 7.042 7.042 0 0 0-1.452 1.823" transform="translate(-748.321 -345.157)" style="stroke:#fff;stroke-linecap:round;stroke-linejoin:round;fill:none"/>
</svg>
