<svg xmlns="http://www.w3.org/2000/svg" width="91" height="91" viewBox="0 0 91 91">
    <path data-name="패스 571" d="M12.926 31.379s-1.619.877-2.309 1.239a3.964 3.964 0 0 1-2.109.531H3.894c-2.134 0-3.34-2.324-2.741-4.2l2.481-7.762C4.5 17.974 6.186 17 9.661 17H21.2a3.739 3.739 0 0 1 3.741 4.411c-.277 1.407-1.009 4.377-1.376 5.6a9.948 9.948 0 0 1-1.4 3.215l-1.785 1.865a3.559 3.559 0 0 1-4.15 1.029l-5.511-2.9C9.342 29.5 8.508 29 8.508 27.381v-1.153h8.074l.757-2.307" transform="translate(18.653 25.109)" style="stroke-linejoin:round;stroke-linecap:round;fill:none;stroke:#5e25c7;stroke-width:2px"/>
    <path data-name="선 42" transform="translate(26.219 49.452)" style="stroke-miterlimit:10;stroke-linecap:round;fill:none;stroke:#5e25c7;stroke-width:2px" d="m0 0 .942 1.884"/>
    <path data-name="패스 572" d="M13.7 15.841a5.228 5.228 0 0 0 5.191-5.392V7.392a5.194 5.194 0 1 0-10.381 0v3.057a5.228 5.228 0 0 0 5.19 5.392z" transform="translate(19.806 22.807)" style="stroke-miterlimit:10;fill:none;stroke:#5e25c7;stroke-width:2px"/>
    <path data-name="선 43" transform="translate(38.696 57.68)" style="stroke-linejoin:round;stroke-linecap:round;fill:none;stroke:#5e25c7;stroke-width:2px" d="M0 0v7.497"/>
    <path data-name="선 44" transform="translate(23.701 58.257)" style="stroke-linejoin:round;stroke-linecap:round;fill:none;stroke:#5e25c7;stroke-width:2px" d="M0 0v6.921"/>
    <path data-name="선 45" transform="translate(52.537 60.027)" style="stroke-linejoin:round;stroke-linecap:round;fill:none;stroke:#5e25c7;stroke-width:2px" d="M0 0v5.15"/>
    <path data-name="선 46" transform="translate(67.532 60.564)" style="stroke-linejoin:round;stroke-linecap:round;fill:none;stroke:#5e25c7;stroke-width:2px" d="M0 0v4.614"/>
    <path data-name="패스 573" d="M29.509 11.767C34.123 10.614 37.583 6 37.583 6s2.307 2.789 2.307 5.767v.377a5.228 5.228 0 0 1-5.19 5.393h-2.884v-6.65" transform="translate(23.028 23.421)" style="stroke-linejoin:round;stroke-linecap:round;fill:none;stroke:#5e25c7;stroke-width:2px"/>
    <path data-name="패스 574" d="M42.657 9.074a8.074 8.074 0 1 0-16.148 0V18.3" transform="translate(22.568 22.653)" style="stroke-miterlimit:10;stroke-linecap:round;fill:none;stroke:#5e25c7;stroke-width:2px"/>
    <path data-name="패스 575" d="M37.085 33.379s1.619.877 2.309 1.239a3.964 3.964 0 0 0 2.109.531h4.614c2.134 0 3.34-2.324 2.741-4.2l-2.48-7.762C45.507 19.974 43.824 19 40.349 19H28.814a3.739 3.739 0 0 0-3.741 4.411c.277 1.407 1.009 4.377 1.376 5.6a9.948 9.948 0 0 0 1.4 3.215l1.779 1.864a3.559 3.559 0 0 0 4.15 1.029l5.512-2.9C40.668 31.5 41.5 31 41.5 29.381v-1.153h-8.072l-.757-2.307" transform="translate(22.336 25.416)" style="stroke-linejoin:round;stroke-linecap:round;fill:none;stroke:#5e25c7;stroke-width:2px"/>
    <path data-name="선 47" transform="translate(63.838 51.759)" style="stroke-miterlimit:10;stroke-linecap:round;fill:none;stroke:#5e25c7;stroke-width:2px" d="M.942 0 0 1.884"/>
    <path data-name="합치기 20" d="M4855 7047a45 45 0 1 1 45 45 45 45 0 0 1-45-45zm7.182 0a37.82 37.82 0 0 0 62.766 28.423l-54.823-51.621a37.536 37.536 0 0 0-7.943 23.198zm67.693 23.2a37.822 37.822 0 0 0-54.823-51.622z" transform="translate(-4854.5 -7001.5)" style="fill:#5e25c7;stroke:transparent;opacity:.1;stroke-miterlimit:10"/>
</svg>
