<svg xmlns="http://www.w3.org/2000/svg" width="91" height="91" viewBox="0 0 91 91">
    <path data-name="패스 564" d="m36.9 39.2 11.287-3.386-4.821-4.259 6.957-7.089-8.578-1.513 7.219-9.893-9.517 1.19 5.945-13.084L31.8 7.816l-.93-6.086-7.781 5.43L20.02 1l-6.886 8.917" transform="translate(21.99 21.69)" style="fill:none;stroke:#5e25c7;stroke-linecap:round;stroke-linejoin:round;stroke-width:2px"/>
    <path data-name="패스 565" d="m13 44.653 3.3-3.3c1.328-1.386 4.722-.249 6.59-2.2l9.01-8.428" transform="translate(21.966 27.326)" style="fill:none;stroke:#5e25c7;stroke-linecap:round;stroke-linejoin:round;stroke-width:2px"/>
    <path data-name="패스 566" d="M15.843 34.939c3.327-3.469 1.652-11.471-.306-13.43l4.663 4.662c2.83 2.829 6.5-.292 7.766-1.554l-10.1-10.1c-1.456-1.456-3.641-.388-4.661 0a32.761 32.761 0 0 0-5.438 2.33c-.916.7-1.276 4.235-1.276 6.849v7.691L1 36.881" transform="translate(19.69 24.112)" style="fill:none;stroke:#5e25c7;stroke-linecap:round;stroke-linejoin:round;stroke-width:2px"/>
    <path data-name="패스 567" d="m26.507 32.066-.777-.777a2.2 2.2 0 0 1 0-3.107l1.557-1.557 2.328-2.325a2.2 2.2 0 0 1 3.107 0l.777.777a2.2 2.2 0 0 1 0 3.107l-3.884 3.884a2.2 2.2 0 0 1-3.108-.002z" transform="translate(24.257 25.985)" style="fill:none;stroke:#5e25c7;stroke-linecap:round;stroke-linejoin:round;stroke-width:2px"/>
    <path data-name="패스 568" d="m23.313 22.835 3.11-3.108a2.2 2.2 0 0 1 3.107 0l1.554 1.554a2.2 2.2 0 0 1 0 3.107L27.2 28.27a2.2 2.2 0 0 1-3.107 0l-2.653-2.652" transform="translate(23.565 25.118)" style="fill:none;stroke:#5e25c7;stroke-linecap:round;stroke-linejoin:round;stroke-width:2px"/>
    <path data-name="패스 569" d="m15.179 15 3.107-3.107a2.2 2.2 0 0 1 3.107 0l1.554 1.554a2.2 2.2 0 0 1 0 3.107" transform="translate(22.378 23.633)" style="fill:none;stroke:#5e25c7;stroke-linecap:round;stroke-linejoin:round;stroke-width:2px"/>
    <path data-name="패스 570" d="m19.1 19.04 3.884-3.884a2.2 2.2 0 0 1 3.107 0l1.554 1.554a2.2 2.2 0 0 1 0 3.107l-.777.777" transform="translate(23.121 24.252)" style="fill:none;stroke:#5e25c7;stroke-linecap:round;stroke-linejoin:round;stroke-width:2px"/>
    <path data-name="합치기 20" d="M4855 7047a45 45 0 1 1 45 45 45 45 0 0 1-45-45zm7.182 0a37.82 37.82 0 0 0 62.766 28.423l-54.823-51.621a37.536 37.536 0 0 0-7.943 23.198zm67.693 23.2a37.822 37.822 0 0 0-54.823-51.622z" transform="translate(-4854.5 -7001.5)" style="fill:#5e25c7;stroke:transparent;stroke-miterlimit:10;opacity:.1"/>
</svg>
