<svg xmlns="http://www.w3.org/2000/svg" width="16" height="15.314" viewBox="0 0 16 15.314">
    <g data-name="ico_star" style="fill:#5e25c7;stroke-linecap:round;stroke-linejoin:round">
        <path d="m14.99 17.228-.897-.471L10 14.604l-4.093 2.153-.897.471.171-.999.782-4.556L2.65 8.447l-.725-.706 1.002-.147 4.577-.669L9.552 2.78 10 1.87l.448.909 2.047 4.146 4.577.67 1.002.146-.725.706-3.312 3.226.782 4.556.171 1z" style="stroke:none" transform="translate(-2 -2)"/>
        <path d="M10 3 7.837 7.382 3 8.089l3.5 3.409-.826 4.816L10 14.039l4.326 2.275-.826-4.816L17 8.089l-4.837-.707L10 3m0-1a1 1 0 0 1 .897.557l1.93 3.911 4.318.632a1 1 0 0 1 .553 1.705l-3.123 3.042.737 4.298a1 1 0 0 1-1.451 1.054L10 15.17l-3.86 2.03a1 1 0 0 1-1.452-1.054l.737-4.298-3.123-3.042A1 1 0 0 1 2.855 7.1l4.318-.632 1.93-3.91A1 1 0 0 1 10 2z" style="fill:#5e25c7;stroke:none" transform="translate(-2 -2)"/>
    </g>
</svg>
