<svg xmlns="http://www.w3.org/2000/svg" width="16" height="13.5" viewBox="0 0 16 13.5">
    <g data-name="Icon awesome-heart" style="fill:#5e25c7">
        <path d="M7.297 13.837a.421.421 0 0 1-.296-.119L1.484 8.327A3.254 3.254 0 0 1 .503 5.85 3.238 3.238 0 0 1 1.73 3.463a3.267 3.267 0 0 1 2.077-.715c.956 0 1.897.383 2.58 1.05l.561.549.35.34.349-.34.561-.548a3.724 3.724 0 0 1 2.581-1.051c.778 0 1.496.247 2.077.715a3.236 3.236 0 0 1 1.227 2.388 3.253 3.253 0 0 1-.983 2.476l-5.518 5.391a.42.42 0 0 1-.296.119z" style="stroke:none" transform="translate(.001 -2.248)"/>
        <path d="M3.808 3.248c-.663 0-1.273.209-1.763.604a2.745 2.745 0 0 0-1.043 2.023c-.037.79.258 1.533.831 2.094l5.464 5.34 5.464-5.34c.575-.561.87-1.305.833-2.094a2.743 2.743 0 0 0-1.041-2.022 2.772 2.772 0 0 0-1.763-.605 3.22 3.22 0 0 0-2.232.91l-1.26 1.228-1.26-1.23a3.213 3.213 0 0 0-2.23-.908m0-1c1.063 0 2.134.415 2.929 1.193l.562.548.561-.548c1.434-1.4 3.758-1.627 5.32-.367a3.732 3.732 0 0 1 .28 5.61l-5.517 5.392a.93.93 0 0 1-1.292 0L1.134 8.684a3.735 3.735 0 0 1 .283-5.61 3.783 3.783 0 0 1 2.39-.826z" style="fill:#5e25c7;stroke:none" transform="translate(.001 -2.248)"/>
    </g>
</svg>
