<svg xmlns="http://www.w3.org/2000/svg" width="10" height="6" viewBox="0 0 10 6">
    <g data-name="그룹 1">
        <g data-name="패스 62" style="fill:none;stroke-linecap:round;stroke-linejoin:round">
            <path d="M1.5 9s1.818-3 5-3 5 3 5 3-1.818 3-5 3-5-3-5-3z" style="stroke:none" transform="translate(-1.5 -6)"/>
            <path d="M6.5 7C4.675 7 3.354 8.266 2.74 9.003 3.35 9.741 4.66 11 6.5 11c1.825 0 3.146-1.266 3.76-2.003C9.65 8.259 8.34 7 6.5 7m0-1c3.182 0 5 3 5 3s-1.818 3-5 3-5-3-5-3 1.818-3 5-3z" style="fill:#fff;stroke:none" transform="translate(-1.5 -6)"/>
        </g>
        <g data-name="패스 63" style="fill:none;stroke-linecap:round;stroke-linejoin:round">
            <path d="M17.5 15.5a2 2 0 1 1-2-2 2 2 0 0 1 2 2z" style="stroke:none" transform="translate(-10.5 -12.5)"/>
            <path d="M15.5 16.5a1.001 1.001 0 0 0 0-2 1.001 1.001 0 0 0 0 2m0 1a2 2 0 1 1 0-4 2 2 0 0 1 0 4z" style="fill:#fff;stroke:none" transform="translate(-10.5 -12.5)"/>
        </g>
    </g>
</svg>
