<svg xmlns="http://www.w3.org/2000/svg" width="10" height="8" viewBox="0 0 10 8">
    <g data-name="Icon awesome-heart" style="fill:none">
        <path d="M9.029 2.795a2.853 2.853 0 0 0-3.644.243L5 3.4l-.385-.362A2.853 2.853 0 0 0 .97 2.795a2.417 2.417 0 0 0-.193 3.712l3.779 3.568a.653.653 0 0 0 .885 0L9.22 6.507a2.416 2.416 0 0 0-.191-3.712z" style="stroke:none" transform="translate(.001 -2.248)"/>
        <path d="M2.608 3.248c-.27 0-.667.058-1.023.335a1.458 1.458 0 0 0-.584 1.085c-.02.417.144.812.462 1.112l3.535 3.337L8.534 5.78c.318-.301.483-.696.464-1.112a1.456 1.456 0 0 0-.584-1.084 1.654 1.654 0 0 0-1.023-.336 1.94 1.94 0 0 0-1.321.517L5 4.774l-1.072-1.01a1.936 1.936 0 0 0-1.32-.516m0-1a2.94 2.94 0 0 1 2.007.79l.384.362.385-.362c.982-.927 2.574-1.077 3.645-.243 1.226.957 1.29 2.675.19 3.712l-3.778 3.568a.653.653 0 0 1-.885 0L.776 6.507C-.32 5.47-.255 3.752.97 2.795a2.65 2.65 0 0 1 1.638-.547z" style="fill:#5e25c7;stroke:none" transform="translate(.001 -2.248)"/>
    </g>
</svg>
